<svg width="200" height="200" viewBox="0 0 200 200" fill="none" xmlns="http://www.w3.org/2000/svg">
<path d="M200 100C200 155.228 155.228 200 100 200C44.7715 200 0 155.228 0 100C0 44.7715 44.7715 0 100 0C155.228 0 200 44.7715 200 100Z" fill="#0EA5E9"/>
<path d="M47.336 137.04C40.7493 137.04 35.064 135.965 30.28 133.816C25.5653 131.597 21.8907 128.408 19.256 124.248C16.6907 120.019 15.2693 114.888 14.992 108.856C14.9227 105.875 14.888 102.72 14.888 99.392C14.888 95.9947 14.9227 92.7707 14.992 89.72C15.2693 83.8267 16.7253 78.8347 19.36 74.744C21.9947 70.6533 25.704 67.5333 30.488 65.384C35.272 63.2347 40.888 62.16 47.336 62.16C52.536 62.16 57.1467 62.8187 61.168 64.136C65.1893 65.384 68.552 67.0827 71.256 69.232C74.0293 71.3813 76.1093 73.7387 77.496 76.304C78.952 78.8693 79.7147 81.4 79.784 83.896C79.8533 84.52 79.6453 85.04 79.16 85.456C78.744 85.872 78.224 86.08 77.6 86.08H62.416C61.6533 86.08 61.064 85.976 60.648 85.768C60.3013 85.4907 59.9893 85.1093 59.712 84.624C59.2267 83.584 58.4987 82.5093 57.528 81.4C56.6267 80.2213 55.344 79.216 53.68 78.384C52.0853 77.552 49.9707 77.136 47.336 77.136C43.384 77.136 40.264 78.176 37.976 80.256C35.7573 82.336 34.544 85.664 34.336 90.24C34.128 96.2027 34.128 102.235 34.336 108.336C34.544 113.189 35.8267 116.691 38.184 118.84C40.5413 120.989 43.6613 122.064 47.544 122.064C50.1787 122.064 52.5013 121.613 54.512 120.712C56.592 119.811 58.2213 118.424 59.4 116.552C60.5787 114.611 61.168 112.149 61.168 109.168V107.192H51.392C50.6293 107.192 49.9707 106.949 49.416 106.464C48.9307 105.909 48.688 105.251 48.688 104.488V96.792C48.688 96.0293 48.9307 95.4053 49.416 94.92C49.9707 94.3653 50.6293 94.088 51.392 94.088H77.6C78.3627 94.088 78.9867 94.3653 79.472 94.92C79.9573 95.4053 80.2 96.0293 80.2 96.792V108.648C80.2 114.611 78.848 119.707 76.144 123.936C73.44 128.165 69.592 131.424 64.6 133.712C59.6773 135.931 53.9227 137.04 47.336 137.04Z" fill="white"/>
<path d="M93.5876 136C92.8249 136 92.2009 135.757 91.7156 135.272C91.2302 134.787 90.9876 134.163 90.9876 133.4V84.52C90.9876 83.7573 91.2302 83.1333 91.7156 82.648C92.2009 82.1627 92.8249 81.92 93.5876 81.92H105.86C106.553 81.92 107.142 82.1627 107.628 82.648C108.182 83.1333 108.46 83.7573 108.46 84.52V133.4C108.46 134.163 108.182 134.787 107.628 135.272C107.142 135.757 106.553 136 105.86 136H93.5876ZM93.4836 74.12C92.7209 74.12 92.0969 73.8773 91.6116 73.392C91.1262 72.9067 90.8836 72.2827 90.8836 71.52V62.264C90.8836 61.5013 91.1262 60.8773 91.6116 60.392C92.0969 59.8373 92.7209 59.56 93.4836 59.56H105.86C106.622 59.56 107.246 59.8373 107.732 60.392C108.286 60.8773 108.564 61.5013 108.564 62.264V71.52C108.564 72.2827 108.286 72.9067 107.732 73.392C107.246 73.8773 106.622 74.12 105.86 74.12H93.4836Z" fill="white"/>
<path d="M151.844 137.04C145.257 137.04 139.572 135.965 134.788 133.816C130.073 131.597 126.398 128.408 123.764 124.248C121.198 120.019 119.777 114.888 119.5 108.856C119.43 105.875 119.396 102.72 119.396 99.392C119.396 95.9947 119.43 92.7707 119.5 89.72C119.777 83.8267 121.233 78.8347 123.868 74.744C126.502 70.6533 130.212 67.5333 134.996 65.384C139.78 63.2347 145.396 62.16 151.844 62.16C157.044 62.16 161.654 62.8187 165.676 64.136C169.697 65.384 173.06 67.0827 175.764 69.232C178.537 71.3813 180.617 73.7387 182.004 76.304C183.46 78.8693 184.222 81.4 184.292 83.896C184.361 84.52 184.153 85.04 183.668 85.456C183.252 85.872 182.732 86.08 182.108 86.08H166.924C166.161 86.08 165.572 85.976 165.156 85.768C164.809 85.4907 164.497 85.1093 164.22 84.624C163.734 83.584 163.006 82.5093 162.036 81.4C161.134 80.2213 159.852 79.216 158.188 78.384C156.593 77.552 154.478 77.136 151.844 77.136C147.892 77.136 144.772 78.176 142.484 80.256C140.265 82.336 139.052 85.664 138.844 90.24C138.636 96.2027 138.636 102.235 138.844 108.336C139.052 113.189 140.334 116.691 142.692 118.84C145.049 120.989 148.169 122.064 152.052 122.064C154.686 122.064 157.009 121.613 159.02 120.712C161.1 119.811 162.729 118.424 163.908 116.552C165.086 114.611 165.676 112.149 165.676 109.168V107.192H155.9C155.137 107.192 154.478 106.949 153.924 106.464C153.438 105.909 153.196 105.251 153.196 104.488V96.792C153.196 96.0293 153.438 95.4053 153.924 94.92C154.478 94.3653 155.137 94.088 155.9 94.088H182.108C182.87 94.088 183.494 94.3653 183.98 94.92C184.465 95.4053 184.708 96.0293 184.708 96.792V108.648C184.708 114.611 183.356 119.707 180.652 123.936C177.948 128.165 174.1 131.424 169.108 133.712C164.185 135.931 158.43 137.04 151.844 137.04Z" fill="white"/>
</svg>
